<?xml version="1.0" encoding="iso-8859-1"?>
<!-- Generator: Adobe Illustrator 18.1.1, SVG Export Plug-In . SVG Version: 6.00 Build 0)  -->
<svg version="1.1" id="Capa_1" xmlns="http://www.w3.org/2000/svg" xmlns:xlink="http://www.w3.org/1999/xlink" x="0px" y="0px"
	 viewBox="0 0 23.303 23.303" style="enable-background:new 0 0 23.303 23.303;" xml:space="preserve">
<g>
	<rect x="0" y="13.434" style="fill:#010002;" width="6.892" height="9.255"/>
	<rect x="16.411" y="11.056" style="fill:#010002;" width="6.892" height="11.633"/>
	<rect x="8.205" y="7.605" style="fill:#010002;" width="6.894" height="15.084"/>
	<path style="fill:#010002;" d="M19.91,4.044l0.976,1.98l2.186,0.318l-1.58,1.541l0.372,2.177L19.91,9.032l-1.954,1.028l0.372-2.177
		l-1.58-1.541l2.184-0.318L19.91,4.044z"/>
	<path style="fill:#010002;" d="M11.689,0.613l0.977,1.981l2.186,0.318l-1.58,1.542l0.373,2.175L11.69,5.602L9.735,6.629
		l0.372-2.175l-1.58-1.542l2.185-0.318L11.689,0.613z"/>
	<path style="fill:#010002;" d="M3.326,6.353l0.976,1.981l2.186,0.319l-1.579,1.54l0.372,2.176l-1.955-1.027L1.371,12.37
		l0.373-2.176l-1.58-1.54l2.185-0.319L3.326,6.353z"/>
</g>
<g>
</g>
<g>
</g>
<g>
</g>
<g>
</g>
<g>
</g>
<g>
</g>
<g>
</g>
<g>
</g>
<g>
</g>
<g>
</g>
<g>
</g>
<g>
</g>
<g>
</g>
<g>
</g>
<g>
</g>
</svg>
