<?xml version="1.0" encoding="iso-8859-1"?>
<!-- Generator: Adobe Illustrator 18.1.1, SVG Export Plug-In . SVG Version: 6.00 Build 0)  -->
<svg version="1.1" id="Capa_1" xmlns="http://www.w3.org/2000/svg" xmlns:xlink="http://www.w3.org/1999/xlink" x="0px" y="0px"
	 viewBox="0 0 525.174 525.174" style="enable-background:new 0 0 525.174 525.174;" xml:space="preserve">
<g>
	<path d="M262.587,429.706c-26.236,0-47.745,21.466-47.745,47.745c0,26.236,21.509,47.723,47.745,47.723
		s47.745-21.488,47.745-47.745C310.332,451.172,288.823,429.706,262.587,429.706z M119.374,0.022
		c-26.236,0-47.745,21.487-47.745,47.745c0,26.28,21.487,47.745,47.745,47.745s47.745-21.466,47.745-47.745
		C167.119,21.509,145.609,0.022,119.374,0.022z M119.374,143.257c-26.236,0-47.745,21.466-47.745,47.745
		c0,26.258,21.487,47.745,47.745,47.745s47.745-21.488,47.745-47.745C167.119,164.723,145.609,143.257,119.374,143.257z
		 M119.374,286.471c-26.236,0-47.745,21.487-47.745,47.745s21.487,47.745,47.745,47.745s47.745-21.466,47.745-47.745
		C167.119,307.958,145.609,286.471,119.374,286.471z M405.801,95.49c26.236,0,47.745-21.466,47.745-47.745
		C453.546,21.487,432.058,0,405.801,0s-47.745,21.487-47.745,47.745C358.056,74.025,379.565,95.49,405.801,95.49z M262.587,286.471
		c-26.236,0-47.745,21.487-47.745,47.745s21.488,47.745,47.745,47.745s47.745-21.466,47.745-47.745
		C310.332,307.958,288.823,286.471,262.587,286.471z M405.801,286.471c-26.236,0-47.745,21.487-47.745,47.745
		s21.488,47.745,47.745,47.745s47.745-21.466,47.745-47.745C453.546,307.958,432.036,286.471,405.801,286.471z M405.801,143.257
		c-26.236,0-47.745,21.466-47.745,47.745c0,26.258,21.488,47.745,47.745,47.745s47.745-21.488,47.745-47.745
		C453.546,164.723,432.036,143.257,405.801,143.257z M262.587,143.257c-26.236,0-47.745,21.466-47.745,47.745
		c0,26.258,21.488,47.745,47.745,47.745s47.745-21.488,47.745-47.745C310.332,164.723,288.823,143.257,262.587,143.257z
		 M262.587,0.022c-26.236,0-47.745,21.487-47.745,47.745c0,26.28,21.488,47.745,47.745,47.745s47.745-21.466,47.745-47.745
		C310.332,21.509,288.823,0.022,262.587,0.022z"/>
</g>
<g>
</g>
<g>
</g>
<g>
</g>
<g>
</g>
<g>
</g>
<g>
</g>
<g>
</g>
<g>
</g>
<g>
</g>
<g>
</g>
<g>
</g>
<g>
</g>
<g>
</g>
<g>
</g>
<g>
</g>
</svg>
